<?xml version="1.0" encoding="UTF-8" standalone="no"?>
<svg
   xmlns:dc="http://purl.org/dc/elements/1.1/"
   xmlns:cc="http://creativecommons.org/ns#"
   xmlns:rdf="http://www.w3.org/1999/02/22-rdf-syntax-ns#"
   xmlns:svg="http://www.w3.org/2000/svg"
   xmlns="http://www.w3.org/2000/svg"
   xmlns:sodipodi="http://sodipodi.sourceforge.net/DTD/sodipodi-0.dtd"
   xmlns:inkscape="http://www.inkscape.org/namespaces/inkscape"
   inkscape:version="1.0 (4035a4fb49, 2020-05-01)"
   height="502.073"
   width="502.073"
   sodipodi:docname="mail-sent.svg"
   xml:space="preserve"
   viewBox="0 0 502.073 502.073"
   y="0px"
   x="0px"
   id="Layer_1"
   version="1.1"><metadata
     id="metadata49"><rdf:RDF><cc:Work
         rdf:about=""><dc:format>image/svg+xml</dc:format><dc:type
           rdf:resource="http://purl.org/dc/dcmitype/StillImage" /><dc:title></dc:title></cc:Work></rdf:RDF></metadata><defs
     id="defs47"><marker
       inkscape:isstock="true"
       style="overflow:visible"
       id="TriangleOutM"
       refX="-0.3"
       refY="0"
       orient="auto"
       inkscape:stockid="TriangleOutM"><path
         transform="scale(0.11, 0.14)"
         style="fill:#000000;fill-opacity:1;fill-rule:evenodd;stroke:#ffffff;stroke-width:1pt;stroke-opacity:1"
         d="M 5.77,0 -2.88,5 V -5 Z"
         id="path1021" /></marker><inkscape:path-effect
       end_linecap_type="zerowidth"
       scale_width="1"
       miter_limit="4"
       linejoin_type="extrp_arc"
       start_linecap_type="zerowidth"
       interpolator_beta="0.2"
       interpolator_type="CubicBezierJohan"
       sort_points="true"
       offset_points="0,0.5"
       lpeversion="1"
       is_visible="true"
       id="path-effect1236"
       effect="powerstroke" /><inkscape:path-effect
       end_linecap_type="zerowidth"
       scale_width="1"
       miter_limit="4"
       linejoin_type="extrp_arc"
       start_linecap_type="zerowidth"
       interpolator_beta="0.2"
       interpolator_type="CubicBezierJohan"
       sort_points="true"
       offset_points="0,0.5"
       lpeversion="1"
       is_visible="true"
       id="path-effect1232"
       effect="powerstroke" /><marker
       inkscape:isstock="true"
       style="overflow:visible"
       id="TriangleInL"
       refX="0"
       refY="0"
       orient="auto"
       inkscape:stockid="TriangleInL"><path
         transform="scale(-0.8)"
         style="fill:#000000;fill-opacity:1;fill-rule:evenodd;stroke:#000000;stroke-width:1pt;stroke-opacity:1"
         d="M 5.77,0 -2.88,5 V -5 Z"
         id="path1009" /></marker></defs><sodipodi:namedview
     inkscape:current-layer="text2158"
     inkscape:window-maximized="0"
     inkscape:window-y="869"
     inkscape:window-x="2844"
     inkscape:cy="333.82837"
     inkscape:cx="310.90491"
     inkscape:zoom="1.4142136"
     showgrid="false"
     id="namedview45"
     inkscape:window-height="1055"
     inkscape:window-width="1992"
     inkscape:pageshadow="2"
     inkscape:pageopacity="0"
     guidetolerance="10"
     gridtolerance="10"
     objecttolerance="10"
     borderopacity="1"
     bordercolor="#666666"
     pagecolor="#ffffff"><inkscape:grid
       id="grid1466"
       type="xygrid" /></sodipodi:namedview><path
     id="path2"
     d="m 501.812,481.176 c 0,6.269 -2.09,11.494 -6.269,15.673 -4.18,3.135 -8.359,5.224 -14.629,5.224 H 21.159 c -5.224,0 -10.449,-2.09 -14.629,-5.224 -4.18,-4.18 -6.269,-9.404 -6.269,-15.673 V 175.02 h 501.551 z"
     style="fill:#212146;fill-opacity:1" /><path
     id="path4"
     d="m 495.543,496.849 c -4.18,3.135 -8.359,5.224 -14.629,5.224 H 21.159 c -5.224,0 -10.449,-2.09 -14.629,-5.224 L 251.036,286.825 Z"
     style="fill:#2d276d;fill-opacity:1" /><path
     id="path6"
     d="m 501.812,175.02 -71.053,51.2 -166.139,119.119 c -8.359,6.269 -19.853,6.269 -28.212,0 L 71.314,226.22 0.261,175.02 71.314,123.82 225.959,13.061 237.453,4.702 c 8.359,-6.269 19.853,-6.269 28.212,0 l 11.494,8.359 74.188,53.29 36.571,26.122 42.841,31.347 z"
     style="fill:#45406b;fill-opacity:1" /><path
     id="path8"
     d="M 430.759,77.845 V 226.22 L 264.62,345.339 c -8.359,6.269 -19.853,6.269 -28.212,0 L 71.314,226.22 V 33.959 c 0,-11.494 9.404,-20.898 20.898,-20.898 H 364.93 Z"
     style="fill:#1b1b1b;fill-opacity:1" /><path
     id="path10"
     d="m 365.975,61.127 c 0,9.404 7.314,16.718 16.718,16.718 h 48.065 l -64.784,-64.784 0.001,48.066 z"
     style="fill:#000000;fill-opacity:1" /><g
     transform="matrix(1,0,0,0.88713343,0,22.743054)"
     style="opacity:1;fill:#ffffff;fill-opacity:1;stroke:none;stroke-opacity:1"
     id="g2128"><path
       id="path2140"
       d="m 251.40034,102.34647 -0.40081,65.98166"
       style="color:#000000;font-style:normal;font-variant:normal;font-weight:normal;font-stretch:normal;font-size:medium;line-height:normal;font-family:sans-serif;font-variant-ligatures:normal;font-variant-position:normal;font-variant-caps:normal;font-variant-numeric:normal;font-variant-alternates:normal;font-variant-east-asian:normal;font-feature-settings:normal;font-variation-settings:normal;text-indent:0;text-align:start;text-decoration:none;text-decoration-line:none;text-decoration-style:solid;text-decoration-color:#000000;letter-spacing:normal;word-spacing:normal;text-transform:none;writing-mode:lr-tb;direction:ltr;text-orientation:mixed;dominant-baseline:auto;baseline-shift:baseline;text-anchor:start;white-space:normal;shape-padding:0;shape-margin:0;inline-size:0;clip-rule:nonzero;display:inline;overflow:visible;visibility:visible;isolation:auto;mix-blend-mode:normal;color-interpolation:sRGB;color-interpolation-filters:linearRGB;solid-color:#000000;solid-opacity:1;vector-effect:none;fill:#ffffff;fill-opacity:1;fill-rule:nonzero;stroke:none;stroke-width:70.6253;stroke-linecap:butt;stroke-linejoin:miter;stroke-miterlimit:4;stroke-dasharray:none;stroke-dashoffset:0;stroke-opacity:1;color-rendering:auto;image-rendering:auto;shape-rendering:auto;text-rendering:auto;enable-background:accumulate;stop-color:#000000;stop-opacity:1" /><path
       id="path2142"
       d="m 216.11524,81.298394 -0.40008,79.571986 70.56999,0.5182 0.40008,-79.574338 z"
       style="color:#000000;font-style:normal;font-variant:normal;font-weight:normal;font-stretch:normal;font-size:medium;line-height:normal;font-family:sans-serif;font-variant-ligatures:normal;font-variant-position:normal;font-variant-caps:normal;font-variant-numeric:normal;font-variant-alternates:normal;font-variant-east-asian:normal;font-feature-settings:normal;font-variation-settings:normal;text-indent:0;text-align:start;text-decoration:none;text-decoration-line:none;text-decoration-style:solid;text-decoration-color:#000000;letter-spacing:normal;word-spacing:normal;text-transform:none;writing-mode:lr-tb;direction:ltr;text-orientation:mixed;dominant-baseline:auto;baseline-shift:baseline;text-anchor:start;white-space:normal;shape-padding:0;shape-margin:0;inline-size:0;clip-rule:nonzero;display:inline;overflow:visible;visibility:visible;isolation:auto;mix-blend-mode:normal;color-interpolation:sRGB;color-interpolation-filters:linearRGB;solid-color:#000000;solid-opacity:1;vector-effect:none;fill:#ffffff;fill-opacity:0.15204678;fill-rule:nonzero;stroke:#ffffff;stroke-width:1.13726;stroke-linecap:butt;stroke-linejoin:miter;stroke-miterlimit:4;stroke-dasharray:none;stroke-dashoffset:0;stroke-opacity:1;color-rendering:auto;image-rendering:auto;shape-rendering:auto;text-rendering:auto;enable-background:accumulate;stop-color:#000000;stop-opacity:1" /><g
       style="fill:#ffffff;fill-opacity:0.14619882;stroke:#ffffff;stroke-opacity:1;stroke-width:1.00012994;stroke-miterlimit:4;stroke-dasharray:none"
       id="g2130"><g
         style="opacity:1;fill:#ffffff;fill-opacity:0.14619882;stroke:#ffffff;stroke-opacity:1;stroke-width:1.00012994;stroke-miterlimit:4;stroke-dasharray:none"
         id="g2134"><path
           id="path2136"
           d="m 250.59853,234.34038 -49.02859,-67.49904 98.87359,0.60061 z"
           style="color:#000000;font-style:normal;font-variant:normal;font-weight:normal;font-stretch:normal;font-size:medium;line-height:normal;font-family:sans-serif;font-variant-ligatures:normal;font-variant-position:normal;font-variant-caps:normal;font-variant-numeric:normal;font-variant-alternates:normal;font-variant-east-asian:normal;font-feature-settings:normal;font-variation-settings:normal;text-indent:0;text-align:start;text-decoration:none;text-decoration-line:none;text-decoration-style:solid;text-decoration-color:#000000;letter-spacing:normal;word-spacing:normal;text-transform:none;writing-mode:lr-tb;direction:ltr;text-orientation:mixed;dominant-baseline:auto;baseline-shift:baseline;text-anchor:start;white-space:normal;shape-padding:0;shape-margin:0;inline-size:0;clip-rule:nonzero;display:inline;overflow:visible;visibility:visible;isolation:auto;mix-blend-mode:normal;color-interpolation:sRGB;color-interpolation-filters:linearRGB;solid-color:#000000;solid-opacity:1;vector-effect:none;fill:#ffffff;fill-opacity:0.14619882;fill-rule:evenodd;stroke:#ffffff;stroke-width:1.00012994;stroke-linecap:butt;stroke-linejoin:miter;stroke-miterlimit:4;stroke-dasharray:none;stroke-dashoffset:0;stroke-opacity:1;color-rendering:auto;image-rendering:auto;shape-rendering:auto;text-rendering:auto;enable-background:accumulate;stop-color:#000000;stop-opacity:1" /><path
           id="path2138"
           d="m 190.05273,160.92773 60.48633,83.27149 4.74414,-6.36719 56.74805,-76.16211 z m 23.03321,11.82618 75.76953,0.46093 -38.19727,51.26563 z"
           style="color:#000000;font-style:normal;font-variant:normal;font-weight:normal;font-stretch:normal;font-size:medium;line-height:normal;font-family:sans-serif;font-variant-ligatures:normal;font-variant-position:normal;font-variant-caps:normal;font-variant-numeric:normal;font-variant-alternates:normal;font-variant-east-asian:normal;font-feature-settings:normal;font-variation-settings:normal;text-indent:0;text-align:start;text-decoration:none;text-decoration-line:none;text-decoration-style:solid;text-decoration-color:#000000;letter-spacing:normal;word-spacing:normal;text-transform:none;writing-mode:lr-tb;direction:ltr;text-orientation:mixed;dominant-baseline:auto;baseline-shift:baseline;text-anchor:start;white-space:normal;shape-padding:0;shape-margin:0;inline-size:0;clip-rule:nonzero;display:inline;overflow:visible;visibility:visible;isolation:auto;mix-blend-mode:normal;color-interpolation:sRGB;color-interpolation-filters:linearRGB;solid-color:#000000;solid-opacity:1;vector-effect:none;fill:#ffffff;fill-opacity:0.14619882;fill-rule:evenodd;stroke:#ffffff;stroke-width:1.00012994;stroke-linecap:butt;stroke-linejoin:miter;stroke-miterlimit:4;stroke-dasharray:none;stroke-dashoffset:0;stroke-opacity:1;color-rendering:auto;image-rendering:auto;shape-rendering:auto;text-rendering:auto;enable-background:accumulate;stop-color:#000000;stop-opacity:1" /></g></g></g><g
     style="font-size:170.252px;line-height:1.25;font-family:sans-serif;letter-spacing:0px;word-spacing:0px;stroke-width:0.886732"
     id="text2158"
     transform="scale(1.017716,0.9825924)"
     aria-label="@"><path
       id="path2160"
       style="stroke-width:0.886732;fill:#e675ff;fill-opacity:1"
       d="m 312.09915,424.37397 q 0,7.83159 -1.87277,15.32268 -1.70252,7.49108 -5.44806,13.62016 -3.74555,5.95882 -9.19361,9.70436 -5.44807,3.57529 -12.93915,3.57529 -7.8316,0 -12.4284,-4.42655 -4.42655,-4.5968 -5.44806,-10.38537 h -0.85126 q -3.06454,6.29932 -9.02336,10.55562 -5.95882,4.2563 -14.98218,4.2563 -12.93915,0 -20.08973,-8.68285 -6.98033,-8.68285 -6.98033,-22.98402 0,-11.23663 4.42655,-19.74923 4.42655,-8.68285 12.42839,-13.62016 8.1721,-4.93731 19.23848,-4.93731 7.49109,0 14.64167,1.36202 7.32084,1.19176 11.40689,2.72403 l -1.70252,34.56115 q -0.17026,3.06454 -0.17026,4.42656 0,1.19176 0,1.70252 0,8.8531 3.06454,11.74738 3.23479,2.89429 7.49109,2.89429 5.27781,0 8.8531,-4.2563 3.74555,-4.42655 5.61832,-11.57714 2.04302,-7.32083 2.04302,-16.00368 0,-15.83344 -6.46957,-26.72957 -6.29933,-11.06638 -17.53596,-16.85495 -11.06638,-5.78856 -25.1973,-5.78856 -19.40872,0 -32.85863,8.00184 -13.27966,8.00184 -20.25999,22.13276 -6.81008,13.96066 -6.81008,32.00737 0,25.1973 13.27966,38.64721 13.27965,13.44991 38.3067,13.44991 10.38537,0 19.74923,-2.38353 9.53411,-2.21328 16.85495,-4.93731 v 11.57714 q -7.32084,3.06453 -16.51445,4.9373 -9.02335,2.04303 -20.08973,2.04303 -20.08974,0 -34.39091,-7.49109 -14.30117,-7.49109 -21.96251,-21.45175 -7.49108,-14.13092 -7.49108,-33.88015 0,-15.83343 4.9373,-29.28334 4.93731,-13.62016 14.30117,-23.49478 9.36386,-10.04487 22.64352,-15.49293 13.44991,-5.61832 30.30485,-5.61832 17.70621,0 31.49662,7.32084 13.79042,7.32084 21.62201,20.941 8.00184,13.62016 8.00184,32.51813 z m -85.97726,10.89612 q 0,10.89613 4.2563,15.83344 4.42655,4.93731 11.74739,4.93731 9.53411,0 13.62016,-7.15059 4.2563,-7.15058 4.93731,-18.55746 l 1.02151,-21.2815 q -2.21328,-0.68101 -5.61832,-1.19177 -3.40504,-0.51075 -6.98033,-0.51075 -8.34235,0 -13.44991,4.08605 -5.10756,4.08604 -7.32083,10.55562 -2.21328,6.29932 -2.21328,13.27965 z" /></g></svg>
